HIERARCHY
ROOT Hips
{
	OFFSET -0.001795 -0.223333 0.028219
	CHANNELS 6 Xposition Yposition Zposition Zrotation Yrotation Xrotation 
	JOINT LeftUpLeg
	{
		OFFSET 0.069520 -0.091406 -0.006815
		CHANNELS 3 Zrotation Yrotation Xrotation
		JOINT LeftLeg
		{
			OFFSET 0.034277 -0.375199 -0.004496
			CHANNELS 3 Zrotation Yrotation Xrotation
			JOINT LeftFoot
			{
				OFFSET -0.013596 -0.397961 -0.043693
				CHANNELS 3 Zrotation Yrotation Xrotation
				JOINT LeftToe
				{
					OFFSET 0.026358 -0.055791 0.119288
					CHANNELS 3 Zrotation Yrotation Xrotation
					End Site
					{
						OFFSET 0.000000 0.000000 0.000000
					}
				}
			}
		}
	}
	JOINT RightUpLeg
	{
		OFFSET -0.067670 -0.090522 -0.004320
		CHANNELS 3 Zrotation Yrotation Xrotation
		JOINT RightLeg
		{
			OFFSET -0.038290 -0.382569 -0.008850
			CHANNELS 3 Zrotation Yrotation Xrotation
			JOINT RightFoot
			{
				OFFSET 0.015774 -0.398415 -0.042312
				CHANNELS 3 Zrotation Yrotation Xrotation
				JOINT RightToe
				{
					OFFSET -0.025372 -0.048144 0.123348
					CHANNELS 3 Zrotation Yrotation Xrotation
					End Site
					{
						OFFSET 0.000000 0.000000 0.000000
					}
				}
			}
		}
	}
	JOINT Spine
	{
		OFFSET -0.002533 0.108963 -0.026696
		CHANNELS 3 Zrotation Yrotation Xrotation
		JOINT Spine1
		{
			OFFSET 0.005487 0.135180 0.001092
			CHANNELS 3 Zrotation Yrotation Xrotation
			JOINT Spine2
			{
				OFFSET 0.001457 0.052922 0.025425
				CHANNELS 3 Zrotation Yrotation Xrotation
				JOINT Neck
				{
					OFFSET -0.002778 0.213870 -0.042857
					CHANNELS 3 Zrotation Yrotation Xrotation
					JOINT Head
					{
						OFFSET 0.005152 0.064970 0.051349
						CHANNELS 3 Zrotation Yrotation Xrotation
						End Site
						{
							OFFSET 0.000000 0.000000 0.000000
						}
					}
				}
				JOINT LeftShoulder
				{
					OFFSET 0.078845 0.121749 -0.034090
					CHANNELS 3 Zrotation Yrotation Xrotation
					JOINT LeftArm
					{
						OFFSET 0.090977 0.030469 -0.008868
						CHANNELS 3 Zrotation Yrotation Xrotation
						JOINT LeftForeArm
						{
							OFFSET 0.259612 -0.012772 -0.027456
							CHANNELS 3 Zrotation Yrotation Xrotation
							JOINT LeftHand
							{
								OFFSET 0.249234 0.008986 -0.001171
								CHANNELS 3 Zrotation Yrotation Xrotation
								End Site
								{
									OFFSET 0.000000 0.000000 0.000000
								}
							}
						}
					}
				}
				JOINT RightShoulder
				{
					OFFSET -0.081759 0.118833 -0.038615
					CHANNELS 3 Zrotation Yrotation Xrotation
					JOINT RightArm
					{
						OFFSET -0.096012 0.032551 -0.009143
						CHANNELS 3 Zrotation Yrotation Xrotation
						JOINT RightForeArm
						{
							OFFSET -0.253742 -0.013329 -0.021401
							CHANNELS 3 Zrotation Yrotation Xrotation
							JOINT RightHand
							{
								OFFSET -0.255298 0.007772 -0.005559
								CHANNELS 3 Zrotation Yrotation Xrotation
								End Site
								{
									OFFSET 0.000000 0.000000 0.000000
								}
							}
						}
					}
				}
			}
		}
	}
}
MOTION
Frames: 5
Frame Time: 0.050000
0.045183 0.866774 0.072410 0.478242 -4.424626 -13.585822 24.205627 -2.079431 28.268578 -8.239545 -1.127659 -61.583627 54.924360 20.843666 128.462136 0.000000 0.000000 0.000000 -31.715737 5.092752 22.910143 7.300220 2.435387 -55.819286 -67.409816 -19.330174 134.296087 0.000000 0.000000 0.000000 2.493038 -0.002867 1.832364 1.347333 1.714415 -51.567358 2.029130 5.613895 59.684164 2.576878 2.691356 -81.718256 0.000000 0.000000 0.000000 17.886045 -3.846788 -0.351060 -13.267488 -8.857823 -2.731180 8.625101 34.712380 1.316817 0.000000 0.000000 0.000000 -3.632289 -3.052192 -1.420081 20.697918 1.860207 -4.524883 -13.819294 -19.296331 2.408901 0.000000 0.000000 0.000000 
0.043183 0.947758 0.053378 -1.286617 -6.461115 -14.326083 23.296149 -0.760280 20.385453 -4.816443 0.713188 -45.299955 49.079787 21.150450 129.288397 0.000000 0.000000 0.000000 -25.497410 2.095772 12.380739 9.556662 1.673874 -35.511757 -60.551611 -21.720265 126.139235 0.000000 0.000000 0.000000 2.851410 -0.203400 5.498217 6.053051 1.326930 -47.221634 -1.301069 7.557151 50.917981 4.356983 2.590553 -76.492755 0.000000 0.000000 0.000000 20.818465 -3.277649 -0.128433 -13.373970 -3.741785 -2.591553 6.199129 27.532558 0.450557 0.000000 0.000000 0.000000 -8.171635 1.076584 -0.298991 20.211900 1.819320 -3.748582 -10.311576 -19.050615 1.639750 0.000000 0.000000 0.000000 
0.040602 1.024724 0.036570 -0.688916 -8.333302 -14.761257 21.330389 0.297161 13.188789 -3.798512 0.896501 -29.953423 27.799603 23.155123 120.474941 0.000000 0.000000 0.000000 -19.341242 0.420237 1.975300 6.740954 -0.103211 -14.905343 -46.411241 -24.445807 112.358415 0.000000 0.000000 0.000000 3.671407 -0.215738 6.056869 4.655593 1.337101 -45.393983 -0.534883 8.942686 47.171845 9.037280 1.508294 -70.038714 0.000000 0.000000 0.000000 26.579480 -6.719589 0.212147 -15.791668 -4.158360 -2.757843 1.493160 26.736709 -0.673164 0.000000 0.000000 0.000000 -13.808944 1.447758 -0.578111 21.308728 2.545865 -3.482505 -7.754702 -21.018779 1.261177 0.000000 0.000000 0.000000 
0.039434 1.068146 0.027646 0.776808 -8.841740 -14.014681 16.850716 0.576715 11.654531 -4.419089 0.822741 -25.129486 18.637818 23.509513 110.326229 0.000000 0.000000 0.000000 -17.603337 0.333604 0.426914 5.572550 -0.320580 -9.436371 -33.972135 -24.435366 103.236402 0.000000 0.000000 0.000000 3.526666 -0.143462 4.717274 2.946402 1.250246 -43.100656 -1.697431 9.895928 43.811086 8.916479 1.159115 -65.630519 0.000000 0.000000 0.000000 28.660604 -10.012669 0.491184 -14.845567 -3.523883 -2.562635 -0.445417 26.596349 -1.165071 0.000000 0.000000 0.000000 -14.334164 2.485163 -0.378766 21.675605 6.089650 -2.942513 -8.283716 -23.199883 1.558554 0.000000 0.000000 0.000000 
0.039834 1.081199 0.025916 -0.345938 -5.648544 -15.551017 16.169170 0.308304 13.962480 -5.394161 0.519211 -25.439422 12.402705 21.594506 105.367131 0.000000 0.000000 0.000000 -16.114208 0.245913 5.497533 3.196020 -0.373665 -9.796445 -22.853858 -22.918193 99.539453 0.000000 0.000000 0.000000 2.766805 -0.237780 6.449016 4.407770 0.913896 -43.139334 -3.689352 9.484379 43.973474 9.439269 1.314241 -69.694718 0.000000 0.000000 0.000000 28.249576 -8.538460 0.711269 -13.032303 -6.921504 -2.149702 -2.599382 25.317924 -1.734460 0.000000 0.000000 0.000000 -11.459678 2.032071 -0.541822 17.364339 6.284854 -2.604172 -2.432354 -24.632903 0.199952 0.000000 0.000000 0.000000 
